<?xml version="1.0" encoding="utf-8"?>
<svg width="100%" height="100%" viewBox="0 0 90 90" version="1.1" xmlns="http://www.w3.org/2000/svg" style="fill-rule:evenodd;clip-rule:evenodd;stroke-linejoin:round;stroke-miterlimit:1.41421;">
  <g id="A">
    <circle cx="45" cy="45" r="45" style="fill:rgb(40,82,173);"/>
    <path d="M 29.363 51.031 L 41.538 51.031 L 35.548 32.15 L 29.363 51.031 Z M 29.982 21.18 L 41.31 21.18 L 58.302 69.162 L 47.43 69.162 L 44.337 59.299 L 26.662 59.299 L 23.341 69.162 L 12.859 69.162 L 29.982 21.18 Z" style="fill:white;fill-rule:nonzero;"/>
  </g>
  <g id="SR" transform="matrix(1, 0, 0, 1, 0.170069, 0.229275)">
    <path d="M60.178,24.401l0,7.412l6.533,0c1.298,0 2.271,-0.15 2.92,-0.449c1.148,-0.524 1.722,-1.56 1.722,-3.107c0,-1.672 -0.555,-2.795 -1.666,-3.369c-0.624,-0.325 -1.56,-0.487 -2.808,-0.487l-6.701,0Zm7.899,-4.792c1.934,0.038 3.422,0.275 4.464,0.712c1.042,0.436 1.925,1.079 2.649,1.928c0.599,0.698 1.073,1.472 1.422,2.32c0.35,0.849 0.524,1.816 0.524,2.902c0,1.31 -0.33,2.598 -0.992,3.865c-0.661,1.266 -1.753,2.162 -3.275,2.686c1.273,0.511 2.174,1.238 2.705,2.18c0.53,0.943 0.795,2.381 0.795,4.315l0,1.853c0,1.26 0.05,2.115 0.15,2.564c0.15,0.711 0.499,1.235 1.048,1.572l0,0.693l-6.345,0c-0.175,-0.612 -0.3,-1.104 -0.375,-1.479c-0.149,-0.773 -0.23,-1.566 -0.243,-2.377l-0.037,-2.564c-0.025,-1.76 -0.347,-2.933 -0.964,-3.519c-0.618,-0.587 -1.775,-0.88 -3.472,-0.88l-5.953,0l0,10.819l-5.633,0l0,-27.59l13.532,0Z" style="fill: rgb(255, 255, 255); fill-rule: nonzero; fill-opacity: 1;"/>
  </g>
</svg>