<?xml version="1.0" encoding="UTF-8"?>
<svg xmlns="http://www.w3.org/2000/svg" xmlns:xlink="http://www.w3.org/1999/xlink" width="900px" height="900px" viewBox="0 0 800 800" version="1.1">
<g id="surface1">
<path style="fill-rule:nonzero;fill:rgb(0%,0%,0%);fill-opacity:1;stroke-width:1;stroke-linecap:butt;stroke-linejoin:miter;stroke:rgb(0%,0%,0%);stroke-opacity:1;stroke-miterlimit:4;" d="M 377.328125 282.855469 C 375.550781 276.269531 372.539062 256.292969 362.265625 260.769531 C 357.238281 262.957031 360.828125 270.648438 362.265625 275.828125 C 373.074219 314.695312 384.46875 350.941406 395.40625 389.796875 C 404.769531 423.082031 414.757812 454.65625 424.023438 487.699219 C 427.054688 498.527344 431.277344 514.003906 432.054688 517.335938 C 436.832031 533.335938 363.28125 522.34375 363.28125 522.34375 C 363.28125 522.34375 363.269531 646.222656 363.269531 698.066406 C 363.269531 706.886719 364.152344 716.746094 362.265625 722.667969 C 359.980469 729.839844 354.511719 736.382812 348.210938 738.734375 C 329.921875 745.558594 314.351562 734.523438 311.058594 719.65625 C 309.5 712.628906 310.554688 703.054688 310.554688 694.050781 C 310.554688 648.734375 310.554688 610.480469 310.554688 563.511719 C 310.554688 555.429688 311.367188 548.09375 311.058594 539.917969 C 310.765625 532.3125 311.460938 521.332031 306.035156 520.335938 C 295.65625 518.421875 296.605469 532.015625 296.996094 540.921875 C 299.238281 591.808594 296.886719 614.011719 296.996094 659.910156 C 297.019531 668.066406 296.996094 678.277344 296.996094 688.527344 C 296.996094 698.449219 298.148438 709.042969 296.496094 716.140625 C 294.292969 725.613281 287.105469 733.960938 279.429688 737.226562 C 258.644531 746.066406 236.636719 735.425781 232.234375 717.144531 C 230.445312 709.742188 231.730469 698.796875 231.730469 688.527344 C 231.730469 621.835938 230.726562 553.007812 230.726562 488.703125 C 230.726562 432.152344 231.230469 358.378906 231.230469 292.398438 C 231.230469 284.726562 234.308594 268.199219 224.199219 269.300781 C 217.726562 270.007812 218.675781 276.605469 218.675781 285.867188 C 218.675781 324.332031 218.675781 356.789062 218.675781 395.820312 C 218.675781 411.453125 220.269531 429.0625 217.171875 437.992188 C 214.257812 446.40625 205.78125 454.769531 193.574219 454.5625 C 182.480469 454.375 172.5 445.535156 169.976562 435.484375 C 168.4375 429.355469 169.472656 419.421875 169.472656 411.386719 C 169.472656 369.988281 167.796875 329.980469 169.472656 289.382812 C 170.34375 268.390625 168.160156 244.703125 174.996094 227.125 C 183.855469 204.359375 204.945312 183.554688 233.742188 181.441406 C 256.390625 179.773438 274.925781 181.941406 296.496094 181.941406 C 326.011719 181.941406 354.675781 179.6875 373.816406 189.46875 C 386.9375 196.179688 398.691406 208.070312 406.449219 223.113281 C 409.914062 229.820312 411.554688 237.28125 413.980469 245.199219 C 420.5625 266.675781 427.4375 289.640625 435.070312 312.976562 C 442.144531 334.628906 449.777344 357.285156 455.652344 381.261719 C 457.609375 389.242188 461.824219 398.03125 461.175781 405.359375 C 459.578125 423.472656 436.9375 433.722656 422.515625 421.429688 C 415.253906 415.238281 413.519531 402.476562 409.964844 391.300781 C 403.636719 371.402344 399.257812 353.753906 391.890625 332.5625 C 387.421875 319.71875 386.03125 308.488281 380.84375 292.394531 C 379.835938 289.265625 378.292969 286.433594 377.328125 282.855469 Z M 377.328125 282.855469 "/>
<path style="fill-rule:nonzero;fill:rgb(0%,0%,0%);fill-opacity:1;stroke-width:1;stroke-linecap:butt;stroke-linejoin:miter;stroke:rgb(0%,0%,0%);stroke-opacity:1;stroke-miterlimit:4;" d="M 359.757812 110.144531 C 360.386719 129.085938 349.328125 148.507812 336.160156 157.339844 C 332.976562 159.480469 326.171875 163.628906 322.601562 164.871094 C 312.011719 168.578125 297.859375 168.390625 287.960938 165.875 C 280.820312 164.0625 269.40625 156.929688 264.363281 152.316406 C 261.324219 149.539062 257.265625 144.082031 255.324219 140.773438 C 239.351562 113.496094 251.082031 79.808594 271.394531 65.960938 C 277.75 61.628906 285.976562 58.851562 294.488281 56.425781 C 299.507812 54.988281 310.65625 55.703125 315.574219 56.929688 C 332.046875 61.03125 343.644531 71.816406 352.226562 83.535156 C 355.816406 93.359375 359.429688 100.21875 359.757812 110.144531 Z M 359.757812 110.144531 "/>
</g>
</svg>
