<?xml version="1.0" encoding="UTF-8"?>
<svg xmlns="http://www.w3.org/2000/svg" xmlns:xlink="http://www.w3.org/1999/xlink" width="800px" height="800px" viewBox="0 0 800 800" version="1.1">
<g id="surface1">
<path style="fill-rule:nonzero;fill:rgb(100%,100%,100%);fill-opacity:1;stroke-width:1;stroke-linecap:butt;stroke-linejoin:miter;stroke:rgb(100%,100%,100%);stroke-opacity:1;stroke-miterlimit:4;" d="M 377.326406 282.857695 C 375.551367 276.268008 372.538828 256.293984 362.263711 260.76832 C 357.240234 262.957148 360.828984 270.648984 362.263711 275.827148 C 373.076367 314.69625 384.469102 350.939531 395.405508 389.793164 C 404.771836 423.081914 414.756914 454.653633 424.022695 487.69875 C 427.05457 498.526875 431.277539 514.003359 432.054844 517.336875 C 436.83082 533.33543 363.280781 522.341016 363.280781 522.341016 C 363.280781 522.341016 363.26918 646.2225 363.26918 698.069883 C 363.26918 706.883203 364.154766 716.748398 362.263711 722.669062 C 359.978203 729.838828 354.513867 736.382109 348.210352 738.737227 C 329.922422 745.558945 314.353125 734.521992 311.058281 719.656523 C 309.499805 712.629844 310.555547 703.054688 310.555547 694.051875 C 310.555547 648.732305 310.555547 610.481953 310.555547 563.511094 C 310.555547 555.428672 311.367656 548.092617 311.058281 539.917383 C 310.768242 532.314492 311.460469 521.33168 306.038672 520.333945 C 295.659141 518.419688 296.606602 532.012852 296.997187 540.922852 C 299.236289 591.807305 296.888906 614.012695 296.997187 659.912344 C 297.020391 668.064375 296.997187 678.277617 296.997187 688.525664 C 296.997187 698.448867 298.149609 709.044961 296.494453 716.137383 C 294.290156 725.615859 287.104922 733.957383 279.428555 737.229023 C 258.646289 746.065547 236.638125 735.426914 232.233398 717.142852 C 230.446758 709.741055 231.730664 698.796914 231.730664 688.525664 C 231.730664 621.832148 230.729063 553.007812 230.729063 488.704219 C 230.729063 432.154336 231.231797 358.376133 231.231797 292.398047 C 231.231797 284.725547 234.306211 268.197187 224.20125 269.299336 C 217.727578 270.007031 218.678906 276.604453 218.678906 285.870234 C 218.678906 324.333281 218.678906 356.790586 218.678906 395.822109 C 218.678906 411.453281 220.26832 429.060586 217.170703 437.993789 C 214.258711 446.404922 205.781836 454.769648 193.576992 454.564687 C 182.478164 454.375195 172.50082 445.534805 169.975547 435.483984 C 168.440273 429.358359 169.472813 419.419688 169.472813 411.387539 C 169.472813 369.989297 167.79832 329.979375 169.472813 289.385508 C 170.34293 268.390547 168.157969 244.704023 174.995156 227.123789 C 183.854883 204.357656 204.942656 183.556055 233.741602 181.440703 C 256.391719 179.773945 274.927148 181.943437 296.49832 181.943437 C 326.012695 181.943437 354.672422 179.688867 373.815 189.468984 C 386.936367 196.178555 398.692617 208.070156 406.450195 223.113516 C 409.915195 229.819219 411.554883 237.282891 413.979609 245.202891 C 420.561563 266.677383 427.437422 289.640742 435.07125 312.979219 C 442.144336 334.631602 449.778164 357.285586 455.652422 381.262148 C 457.609219 389.240156 461.824453 398.030273 461.174766 405.362461 C 459.577617 423.4725 436.939102 433.720547 422.518359 421.430625 C 415.255781 415.239258 413.519414 402.477539 409.961602 391.301367 C 403.634883 371.40082 399.257227 353.750977 391.890234 332.562656 C 387.423633 319.715859 386.031445 308.489414 380.845547 292.39418 C 379.832344 289.265625 378.293203 286.434844 377.326406 282.857695 Z M 377.326406 282.857695 " transform="matrix(1.010101,0,0,1.010101,90.909091,0)"/>
<path style="fill-rule:nonzero;fill:rgb(100%,100%,100%);fill-opacity:1;stroke-width:1;stroke-linecap:butt;stroke-linejoin:miter;stroke:rgb(100%,100%,100%);stroke-opacity:1;stroke-miterlimit:4;" d="M 359.757773 110.145234 C 360.388125 129.086719 349.331836 148.507734 336.160195 157.340391 C 332.973633 159.478945 326.17125 163.628437 322.601836 164.873672 C 312.009609 168.578438 297.85957 168.392812 287.95957 165.875273 C 280.820742 164.061563 269.404805 156.926602 264.365859 152.316914 C 261.32625 149.540273 257.265703 144.083672 255.324375 140.773359 C 239.352891 113.498086 251.08207 79.811016 271.392539 65.962617 C 277.750195 61.6275 285.975703 58.850859 294.487383 56.426133 C 299.506992 54.987539 310.656094 55.702969 315.575156 56.928867 C 332.045508 61.031953 343.643203 71.817539 352.224492 83.535117 C 355.817109 93.357773 359.429062 100.218164 359.757773 110.145234 Z M 359.757773 110.145234 " transform="matrix(1.010101,0,0,1.010101,90.909091,0)"/>
</g>
</svg>
